<svg xmlns="http://www.w3.org/2000/svg" viewBox="0 0 104.86 93.36"><defs><style>.cls-1,.cls-2{fill:none;stroke:#fff;stroke-linecap:round;stroke-linejoin:round;}.cls-1{stroke-width:2.5px;}</style></defs><g id="Capa_2" data-name="Capa 2"><g id="OBJECTS"><polyline class="cls-1" points="92.48 33.86 92.48 75.84 1.25 75.84 1.25 10.65 71.3 10.65"/><line class="cls-1" x1="1.25" y1="65.27" x2="92.48" y2="65.27"/><rect class="cls-1" x="37.52" y="75.84" width="18.7" height="10.31"/><rect class="cls-1" x="26.74" y="86.15" width="40.24" height="5.96"/><path class="cls-2" d="M18.49,23.28A28,28,0,0,0,8.14,41.43a12.79,12.79,0,0,0,.67,6.89c3.78,8.32,8.51.82,12.92-2.09a11.15,11.15,0,0,1,8-2c2.62.47,4.83,2.15,7,3.66s4.68,2.92,7.34,2.75S49.36,48,48.7,45.4"/><path class="cls-1" d="M62.18,34.64a5.55,5.55,0,0,1,7.61,2c1.56,2.64,1.26,6-2,8.79-5.16,4.33-11.21,3.83-14.72,1.11C62.77,44.59,56.2,38.17,62.18,34.64Z"/><path class="cls-1" d="M70.36,36.91A68.33,68.33,0,0,0,90.79,23.19,67.33,67.33,0,0,0,103.31,5.36,2.85,2.85,0,0,0,99.5,1.55,67.34,67.34,0,0,0,81.67,14.06,68.16,68.16,0,0,0,68,34.5Z"/><line class="cls-1" x1="76.94" y1="33.6" x2="71.25" y2="27.91"/></g></g></svg>